Coordinates
version=1
nRows=23
nColumns=28
inDegrees=yes

Units are S.I. units (second, meters, Newtons, ...)
Angles are in degrees.

endheader
time	pelvis_tilt	pelvis_list	pelvis_rotation	pelvis_tx	pelvis_ty	pelvis_tz	hip_flexion_r	hip_adduction_r	hip_rotation_r	knee_angle_r	ankle_angle_r	subtalar_angle_r	mtp_angle_r	hip_flexion_l	hip_adduction_l	hip_rotation_l	knee_angle_l	socket_flexion	socket_adduction	socket_rotation	socket_tx	socket_ty	socket_tz	foot_flex	lumbar_extension	lumbar_bending	lumbar_rotation
      0.00000000	      2.34252393	     -0.24975577	     -1.34745370	     -0.88497880	      1.00053209	      0.25259747	    -25.48630425	      4.15787341	    -10.65229257	     -4.74814974	     12.83105975	      0.83393364	     15.73939060	     25.32106932	      4.33409594	     10.28792667	     -4.13074583	      1.93616597	     -3.03207761	     -2.74131829	      0.00000000	     -0.00074045	      0.00000000	      1.07325249	    -14.83170367	     -0.27844713	      2.45105295
      0.00416667	      2.28043135	     -0.27935804	     -1.29102358	     -0.87939464	      0.99988246	      0.25217005	    -25.60936869	      4.16572941	    -10.59256240	     -4.97583624	     12.77125596	      0.83172066	     15.73506921	     25.15333302	      4.40923014	     10.29405364	     -4.14517918	      1.90286212	     -3.06473332	     -2.72303472	      0.00000000	     -0.00100580	      0.00000000	      0.98149956	    -14.67186667	     -0.25749587	      2.44844190
      0.00833333	      2.24299899	     -0.33057999	     -1.33521595	     -0.87372682	      0.99929050	      0.25178194	    -25.59112838	      4.09993668	    -10.68585638	     -5.54394677	     12.51027373	      0.76183567	     15.71254793	     24.90174530	      4.41170358	     10.22388203	     -4.03484541	      1.88802006	     -3.11545810	     -2.58681870	      0.00000000	     -0.00144403	      0.00000000	      0.50175973	    -14.61058463	     -0.19654668	      2.42615883
      0.01250000	      2.17554346	     -0.36208810	     -1.29164501	     -0.86765161	      0.99858650	      0.25130169	    -25.70934911	      4.08964213	    -10.63202919	     -5.82134853	     12.44020245	      0.76102415	     15.71231120	     24.70748946	      4.48419989	     10.23166280	     -4.04364052	      1.85652263	     -3.16087239	     -2.53497676	      0.00000000	     -0.00182581	      0.00000000	      0.41144084	    -14.44562617	     -0.16603020	      2.42997957
      0.01666667	      2.14334046	     -0.41437384	     -1.35142364	     -0.86163458	      0.99804515	      0.25090395	    -25.64979027	      4.00517942	    -10.73653900	     -6.50543774	     12.16416845	      0.71093753	     15.71036945	     24.41865784	      4.48155022	     10.11299871	     -3.92132337	      1.86445983	     -3.21628496	     -2.33612597	      0.00000000	     -0.00230321	      0.00000000	     -0.04806865	    -14.37924567	     -0.11108260	      2.43651249
      0.02083333	      2.17582900	     -0.22989715	     -1.67439827	     -0.85492665	      0.99767913	      0.25106039	    -25.66438094	      3.55290772	    -10.89771520	     -7.23039509	     12.12894678	      1.24557259	     16.21286014	     23.88173887	      4.57924622	      9.30975460	     -3.46066731	      2.04399496	     -3.32478479	     -1.79985521	      0.00000000	     -0.00273957	      0.00000000	     -0.27675423	    -14.28401970	     -0.41851291	      2.77639304
      0.02500000	      2.13824551	     -0.26816177	     -1.63041719	     -0.84856960	      0.99706704	      0.25053004	    -25.71163720	      3.51925484	    -10.92792214	     -7.72684154	     11.88642627	      1.20841337	     16.22570162	     23.63161592	      4.64492703	      9.34293640	     -3.48918757	      1.99467950	     -3.37307804	     -1.67203842	      0.00000000	     -0.00328148	      0.00000000	     -0.57680487	    -14.18695456	     -0.37871709	      2.76975343
      0.02916667	      2.09320733	     -0.29703215	     -1.61334453	     -0.84209979	      0.99647719	      0.25002261	    -25.72470153	      3.45659772	    -10.95157887	     -8.27181031	     11.63304742	      1.16462948	     16.24304694	     23.36869219	      4.70756940	      9.35288782	     -3.50065612	      1.95770056	     -3.43004093	     -1.51720611	      0.00000000	     -0.00387293	      0.00000000	     -0.86120193	    -14.07148934	     -0.34727958	      2.76024763
      0.03333333	      2.02896136	     -0.31515664	     -1.54142069	     -0.83532973	      0.99584726	      0.24950166	    -25.83650938	      3.44175074	    -10.86067167	     -8.59939990	     11.53498231	      1.16177441	     16.24468134	     23.12426780	      4.80414895	      9.40098013	     -3.55477206	      1.92683799	     -3.47437515	     -1.44063947	      0.00000000	     -0.00455393	      0.00000000	     -0.95546249	    -13.86534328	     -0.33042725	      2.75982176
      0.03750000	      1.98862010	     -0.32575898	     -1.57601504	     -0.82895022	      0.99542292	      0.24903140	    -25.70214860	      3.30430365	    -10.94634362	     -9.41595234	     11.08707612	      1.04749552	     16.23472420	     22.83653834	      4.85219106	      9.38609288	     -3.52904918	      1.90969745	     -3.53333319	     -1.20706047	      0.00000000	     -0.00513939	      0.00000000	     -1.44414585	    -13.81566824	     -0.32847929	      2.73331079
      0.04166667	      1.93353417	     -0.30179434	     -1.59495166	     -0.82223673	      0.99497481	      0.24857450	    -25.63990684	      3.15558793	    -10.97824240	    -10.08785675	     10.73956868	      0.96425830	     16.26246367	     22.55227935	      4.94564852	      9.32680427	     -3.52565743	      1.90590552	     -3.59186156	     -1.02703659	      0.00000000	     -0.00579519	      0.00000000	     -1.68005497	    -13.66253910	     -0.36271010	      2.72349831
      0.04583333	      1.87319998	     -0.24040222	     -1.63478217	     -0.81544788	      0.99457854	      0.24817423	    -25.53736936	      2.95712314	    -11.03522436	    -10.80307489	     10.33979929	      0.85594580	     16.33466448	     22.26303085	      5.06624212	      9.19883343	     -3.51507753	      1.91328665	     -3.64688383	     -0.83891780	      0.00000000	     -0.00649560	      0.00000000	     -1.93445332	    -13.50032836	     -0.44321625	      2.72071942
      0.05000000	      1.81090258	     -0.17207733	     -1.63091710	     -0.80867536	      0.99425549	      0.24772252	    -25.46212633	      2.78283867	    -11.00187161	    -11.45866219	      9.97509630	      0.77275738	     16.40099843	     21.98829689	      5.20536395	      9.15105997	     -3.54015338	      1.91088329	     -3.69412029	     -0.65482376	      0.00000000	     -0.00715389	      0.00000000	     -2.16980957	    -13.33471747	     -0.55094363	      2.71601255
      0.05416667	      1.70388861	      0.05426392	     -1.72199772	     -0.80160044	      0.99395302	      0.24747273	    -25.30190305	      2.39283981	    -11.07199098	    -12.20340914	      9.44817052	      0.58806483	     16.76748769	     21.72010221	      5.45786455	      8.82505145	     -3.51960407	      1.92357821	     -3.76370601	     -0.35194362	      0.00000000	     -0.00768044	      0.00000000	     -2.32582108	    -13.06513049	     -0.83618470	      2.75858788
      0.05833333	      1.67508407	      0.10251427	     -1.66612500	     -0.79495564	      0.99378408	      0.24700873	    -25.21922006	      2.27602831	    -10.96949690	    -12.90094649	      9.05526423	      0.51559453	     16.81984143	     21.44129067	      5.58486754	      8.86406065	     -3.61105595	      1.90983407	     -3.77605297	     -0.20622275	      0.00000000	     -0.00838764	      0.00000000	     -2.60326558	    -12.97221177	     -0.93078136	      2.73076249
      0.06250000	      1.64212020	      0.19800004	     -1.64662845	     -0.78826479	      0.99371752	      0.24656830	    -25.07149506	      2.07108821	    -10.93194701	    -13.70639251	      8.54426252	      0.36053825	     16.85741537	     21.15339313	      5.74483369	      8.87517479	     -3.70020437	      1.87766334	     -3.80216433	     -0.09632746	      0.00000000	     -0.00901708	      0.00000000	     -2.80047278	    -12.86927982	     -1.05661539	      2.68453689
      0.06666667	      1.61070006	      0.32925053	     -1.62853237	     -0.78159172	      0.99368786	      0.24615254	    -24.90313609	      1.82679978	    -10.91922169	    -14.53642576	      7.99308351	      0.16007761	     16.89913772	     20.88749458	      5.93584935	      8.86469379	     -3.81807978	      1.89292195	     -3.80858891	     -0.00736900	      0.00000000	     -0.00966655	      0.00000000	     -2.98287067	    -12.74854563	     -1.22741729	      2.62760524
      0.07083333	      1.51545235	      0.81010866	     -1.81700791	     -0.77423230	      0.99369267	      0.24614997	    -24.66411161	      1.10829065	    -11.11390104	    -15.33941905	      6.30564190	     -0.42117913	     21.81240544	     20.82434199	      6.41712038	      7.58748374	     -4.48492667	      1.44885575	     -3.89476132	      0.89030545	      0.00000000	     -0.00998375	      0.00000000	     -3.11747829	    -12.43077912	     -1.87755953	      2.82138640
      0.07500000	      1.51611527	      0.90912225	     -1.70904556	     -0.76774463	      0.99386420	      0.24561717	    -24.48847903	      0.94396785	    -11.03690673	    -16.20875971	      5.77103092	     -0.56411982	     21.74368684	     20.54663954	      6.59801576	      7.71990524	     -4.62620974	      1.47674040	     -3.86408088	      0.92634386	      0.00000000	     -0.01054050	      0.00000000	     -3.27806218	    -12.39518261	     -2.00512976	      2.70034229
      0.07916667	      1.50584827	      1.10344072	     -1.66558628	     -0.76115056	      0.99407564	      0.24514687	    -24.21539699	      0.61481908	    -11.12067253	    -17.23865564	      5.03562661	     -0.87883251	     21.65935302	     20.27927308	      6.85845235	      7.77083398	     -4.77338393	      1.49243030	     -3.84105236	      0.84197437	      0.00000000	     -0.01102749	      0.00000000	     -3.40196004	    -12.30570847	     -2.22778652	      2.53293362
      0.08333333	      1.48193456	      1.28378208	     -1.53283290	     -0.75462039	      0.99435374	      0.24467564	    -23.98118037	      0.38816088	    -11.04211063	    -18.14780817	      4.44534926	     -1.08743682	     21.60209990	     20.03004920	      7.10807501	      7.87365823	     -4.91461246	      1.53819971	     -3.78208629	      0.89718230	      0.00000000	     -0.01143694	      0.00000000	     -3.51191173	    -12.22593268	     -2.47312348	      2.41351411
      0.08750000	      1.43517728	      1.58046865	     -1.49936734	     -0.74796780	      0.99466330	      0.24431283	    -23.58977371	     -0.06004311	    -11.19499452	    -19.30856809	      3.56412957	     -1.52623508	     21.54137939	     19.80641416	      7.44981638	      7.86027666	     -5.06522498	      1.55670854	     -3.74399439	      0.80137263	      0.00000000	     -0.01169833	      0.00000000	     -3.59547261	    -12.07705797	     -2.81449641	      2.22455767
      0.09166667	      1.15278464	      2.00775090	     -1.27184541	     -0.74107497	      0.99465945	      0.24368620	    -23.01899171	     -0.56621666	    -11.53064671	    -20.33245419	      2.18762306	     -2.08931775	     24.46693540	     19.94425173	      7.99319142	      7.71711584	     -5.55793308	      1.38626150	     -3.70851658	      0.93185717	      0.00000000	     -0.01175169	      0.00000000	     -3.70800483	    -11.63251251	     -3.34459502	      1.99326438
